<svg width="22" height="22" viewBox="0 0 22 22" xmlns="http://www.w3.org/2000/svg">
    <path d="M7 1.75a.75.75 0 0 1 .75.75v1h6.5v-1a.75.75 0 0 1 1.5 0v1H17a2.25 2.25 0 0 1 2.25 2.25v12.5A2.25 2.25 0 0 1 17 18.5H5a2.25 2.25 0 0 1-2.25-2.25V5.25A2.25 2.25 0 0 1 5 3h1.25v-1A.75.75 0 0 1 7 1.75zM5 4.5a.75.75 0 0 0-.75.75v1.5h13.5v-1.5A.75.75 0 0 0 17 4.5h-1.25v.25a.75.75 0 0 1-1.5 0V4.5h-6.5v.25a.75.75 0 0 1-1.5 0V4.5H5zM4.25 8.25v8A.75.75 0 0 0 5 17h12a.75.75 0 0 0 .75-.75v-8H4.25z" fill="#434343" fill-rule="nonzero" fill-opacity=".85"/>
</svg>