<svg width="22" height="22" viewBox="0 0 22 22" xmlns="http://www.w3.org/2000/svg">
    <path d="M2.75 2.75A.75.75 0 0 1 3.5 2h15a.75.75 0 0 1 .75.75v16.5a.75.75 0 0 1-.75.75h-15a.75.75 0 0 1-.75-.75V2.75zM4.25 3.5v14.75h13.5V3.5H4.25zM6.5 8.5a.75.75 0 0 1 .75.75v5a.75.75 0 0 1-1.5 0v-5a.75.75 0 0 1 .75-.75zm3.5-2a.75.75 0 0 1 .75.75v7a.75.75 0 0 1-1.5 0v-7a.75.75 0 0 1 .75-.75zm3.5 3a.75.75 0 0 1 .75.75v4a.75.75 0 0 1-1.5 0v-4a.75.75 0 0 1 .75-.75zm3.5-1a.75.75 0 0 1 .75.75v5a.75.75 0 0 1-1.5 0v-5a.75.75 0 0 1 .75-.75z" fill="#434343" fill-rule="nonzero" fill-opacity=".85"/>
</svg>