<svg width="22" height="22" viewBox="0 0 22 22" xmlns="http://www.w3.org/2000/svg">
    <path d="M11 1.25c1.795 0 3.548.35 5.2 1.035a.75.75 0 0 1 .42.902c-.19.728-.46 1.575-.813 2.542-.705 1.93-1.783 4.376-3.276 6.814-1.493 2.437-3.411 4.892-5.781 6.894a.75.75 0 0 1-1.024-.1l-.04-.045c-.533-.626-1.035-1.316-1.49-2.066C2.903 15.4 1.25 12.51 1.25 9.5c0-3.452 1.398-6.58 3.657-8.839A12.45 12.45 0 0 1 11 1.25zm-7.25 8.25c0 2.49 1.347 4.975 3.486 6.607 1.069 0.816 2.261 1.444 3.514 1.868-2.059-1.718-3.75-3.775-5.06-5.825-1.31-2.05-2.19-4.097-2.69-5.65a10.95 10.95 0 0 0-.25 3z" fill="#434343" fill-rule="nonzero" fill-opacity=".85"/>
</svg>