<svg width="22" height="22" viewBox="0 0 22 22" xmlns="http://www.w3.org/2000/svg">
    <path d="M6.62 2.75h2.01c.83 0 1.52.67 1.52 1.5v.5c0 .41-.34.75-.75.75s-.75-.34-.75-.75v-.5h-2.01v12.5h8.72V4.25H13.35v.5c0 .41-.34.75-.75.75s-.75-.34-.75-.75v-.5c0-.83.68-1.5 1.52-1.5h2.01c.83 0 1.52.67 1.52 1.5v13c0 .83-.68 1.5-1.52 1.5H6.62c-.83 0-1.52-.67-1.52-1.5v-13c0-.83.68-1.5 1.52-1.5zM11 14.75a.875.875 0 1 0 0 1.75.875.875 0 0 0 0-1.75z" fill="#434343" fill-rule="nonzero" fill-opacity=".85"/>
</svg>