<svg xmlns="http://www.w3.org/2000/svg" width="24" height="24" viewBox="0 0 24 24" role="img" aria-label="Preferences">
  <path fill="#434343" d="M19.14 12.936c.04-.305.06-.618.06-.936s-.02-.631-.06-.936l2.037-1.59a.5.5 0 0 0 .12-.638l-1.928-3.338a.5.5 0 0 0-.607-.22l-2.397.96a7.048 7.048 0 0 0-1.62-.936l-.363-2.54a.5.5 0 0 0-.497-.422h-3.856a.5.5 0 0 0-.497.422l-.363 2.54a7.048 7.048 0 0 0-1.62.936l-2.397-.96a.5.5 0 0 0-.607.22L2.703 8.836a.5.5 0 0 0 .12.638l2.037 1.59c-.04.305-.06.618-.06.936s.02.631.06.936l-2.037 1.59a.5.5 0 0 0-.12.638l1.928 3.338c.14.244.44.34.707.22l2.397-.96c.48.384 1.03.704 1.62.936l.363 2.54a.5.5 0 0 0 .497.422h3.856a.5.5 0 0 0 .497-.422l.363-2.54c.59-.232 1.14-.552 1.62-.936l2.397.96c.267.12.567.024.707-.22l1.928-3.338a.5.5 0 0 0-.12-.638l-2.037-1.59zM12 15.5a3.5 3.5 0 1 1 0-7 3.5 3.5 0 0 1 0 7z"/>
</svg>
