<svg width="22" height="22" viewBox="0 0 22 22" xmlns="http://www.w3.org/2000/svg">
    <path d="M4.25 4.25A.75.75 0 0 1 5 3.5h12a.75.75 0 0 1 .75.75v3.5a2.25 2.25 0 0 1-4.5 0 2.25 2.25 0 0 1-4.5 0 2.25 2.25 0 0 1-4.5 0v-3.5zM5.75 5v2.75a.75.75 0 0 0 1.5 0V5h1.5v2.75a.75.75 0 0 0 1.5 0V5h1.5v2.75a.75.75 0 0 0 1.5 0V5h1.5v2.75a.75.75 0 0 0 1.5 0V5h1.25v2.75a.75.75 0 0 1-.75.75H5a.75.75 0 0 1-.75-.75V5h1.5zm-1.5 6v6.75A.75.75 0 0 0 5 18.5h12a.75.75 0 0 0 .75-.75V11a.75.75 0 0 0-1.5 0v6h-10.5V11a.75.75 0 0 0-1.5 0z" fill="#434343" fill-rule="nonzero" fill-opacity=".85"/>
</svg>